# xmcd
#
# Track frame offsets:
# 150
# 19670
# 41095
# 63450
# 85856
# 106579
# 124909
# 143683
# 163978
# 186601
#
# Disc length: 2790 seconds
#
#
# Revision: 1
# Processed by: cddbd v1.4PL0 Copyright (c) Steve Scherf et al.
# Submitted via: FreeRIP 2.52 
#
DISCID=890ae40a
DTITLE=Los Sabrosos Del Merengue - Hasta Que La Noche Pierda El Nombre
DYEAR=1900
DGENRE=Latin
TTITLE0=La Macolina
TTITLE1=Cruise Control - Sheba Potts Wright
TTITLE2=Otro Mas Feo Que Yo
TTITLE3=I'll Be The Other Woman - Sheba Potts Wright
TTITLE4=Meren Reggae
TTITLE5=El Desarreglo
TTITLE6=Tu Marido
TTITLE7=Si Te Vas
TTITLE8=El Mejor
TTITLE9=Southern Guys - Sheba Potts Wright
EXTD=
EXTT0=
EXTT1=
EXTT2=
EXTT3=
EXTT4=
EXTT5=
EXTT6=
EXTT7=
EXTT8=
EXTT9=
PLAYORDER=
